<svg width="373" height="51" viewBox="0 0 373 51" fill="none" xmlns="http://www.w3.org/2000/svg">
<path d="M2.21792e-06 51L0 0.260026L5.16 0.260026L5.16 51H2.21792e-06ZM7.74 51L7.74 0.260026L15.48 0.260025L15.48 51H7.74ZM23.22 51L23.22 0.260025L25.8 0.260025L25.8 51H23.22Z" fill="#0026FF"/>
<path d="M26.6667 51L26.6667 0.260025L29.2467 0.260025L29.2467 51H26.6667ZM31.8267 51L31.8267 0.260025L34.4067 0.260025L34.4067 51H31.8267ZM42.1467 51V0.260024L47.3067 0.260024V51H42.1467Z" fill="#0026FF"/>
<path d="M53.3334 51L53.3334 0.260024L55.9134 0.260024V51H53.3334ZM58.4934 51L58.4934 0.260023L63.6534 0.260023L63.6534 51H58.4934ZM71.3934 51V0.260023L79.1334 0.260023L79.1334 51H71.3934Z" fill="#0026FF"/>
<path d="M80.0002 51V0.260023L85.1602 0.260022V51H80.0002ZM87.7402 51L87.7402 0.260022L95.4802 0.260022V51L87.7402 51ZM98.0602 51L98.0602 0.260022L105.8 0.260021V51H98.0602Z" fill="#0026FF"/>
<path d="M106.667 51V0.260021L114.407 0.260021L114.407 51H106.667ZM116.987 51V0.260021L122.147 0.260021V51H116.987ZM124.727 51L124.727 0.260021L127.307 0.26002V51H124.727Z" fill="#0026FF"/>
<path d="M133.334 51V0.26002L135.914 0.26002V51H133.334ZM138.494 51V0.26002L141.074 0.26002V51H138.494ZM148.814 51V0.26002L153.974 0.260019V51H148.814Z" fill="#0026FF"/>
<path d="M160 51V0.260019L165.16 0.260019V51H160ZM167.74 51V0.260019L172.9 0.260018L172.9 51H167.74ZM178.06 51V0.260018L183.22 0.260018V51L178.06 51Z" fill="#0026FF"/>
<path d="M186.667 51V0.260018L189.247 0.260018V51H186.667ZM196.987 51V0.260017L202.147 0.260017V51H196.987ZM209.887 51V0.260017L212.467 0.260017V51H209.887Z" fill="#0026FF"/>
<path d="M213.334 51V0.260017L218.494 0.260016V51H213.334ZM221.074 51V0.260016L228.814 0.260016V51H221.074ZM231.394 51V0.260016L239.134 0.260016V51H231.394Z" fill="#0026FF"/>
<path d="M240 51V0.260016L242.58 0.260015V51H240ZM245.16 51V0.260015L250.32 0.260015V51H245.16ZM252.9 51L252.9 0.260015L260.64 0.260015V51H252.9Z" fill="#0026FF"/>
<path d="M266.667 51V0.260014L271.827 0.260014V51L266.667 51ZM279.567 51V0.260014L282.147 0.260014V51H279.567ZM289.887 51V0.260013L292.467 0.260013L292.467 51H289.887Z" fill="#0026FF"/>
<path d="M293.334 51V0.260013L295.914 0.260013L295.914 51H293.334ZM298.494 51V0.260013L303.654 0.260013V51H298.494ZM311.394 51V0.260012L319.134 0.260012L319.134 51H311.394Z" fill="#0026FF"/>
<path d="M320.001 51V0.260012L322.581 0.260012L322.581 51H320.001ZM325.161 51V0.260012L327.741 0.260012V51H325.161ZM335.481 51V0.260011L340.641 0.260011V51H335.481Z" fill="#0026FF"/>
<path d="M346.667 51V0.260011L354.407 0.260011V51H346.667ZM356.987 51V0.26001L359.567 0.26001V51H356.987ZM367.307 51V0.26001L372.467 0.26001L372.467 51H367.307Z" fill="#0026FF"/>
</svg>
