<svg width="362" height="49" viewBox="0 0 362 49" fill="none" xmlns="http://www.w3.org/2000/svg">
<g clip-path="url(#clip0_7891_1240)">
<path d="M33.825 47.1013C29.2205 48.7883 23.9939 49 21.8145 49C15.6955 49 9.37358 46.8197 5.20407 42.1799C1.21485 37.8216 -0.53184 31.4947 0.142045 24.8863C0.879035 17.645 4.25296 11.46 8.98819 7.09943C12.6303 3.79522 18.6434 0 27.4377 0C30.9559 0 34.8369 0.563089 38.4363 1.82666L37.1088 19.6833C35.3395 17.7148 31.9543 15.0435 27.6631 15.0435C24.9901 15.0435 22.4208 16.0976 20.5456 17.9265C18.7494 19.6833 17.654 22.1452 17.4038 24.6047C17.1537 27.0643 17.8095 29.596 19.4593 31.3528C20.7304 32.6884 22.7746 34.0241 26.1508 34.0241C30.9334 34.0241 34.5349 31.1411 36.0991 29.596L33.8227 47.1013H33.825Z" fill="#0026FF"/>
<path d="M80.2621 41.4771C75.8379 45.5539 68.9436 49 60.0095 49C51.0755 49 44.8843 45.5561 41.2895 41.4771C38.0103 37.7517 35.7136 31.9857 36.4799 24.4651C37.2395 17.0143 40.7103 11.2483 44.7468 7.52287C49.1733 3.44385 56.0676 0 64.9994 0C73.9312 0 80.1246 3.44385 83.7194 7.52287C86.9987 11.2483 89.2953 17.0143 88.5358 24.4651C87.7695 31.988 84.2987 37.7517 80.2599 41.4771H80.2621ZM57.0976 17.5053C55.2292 19.2621 53.9671 22.0055 53.7079 24.5349C53.4352 27.2062 54.1564 29.8077 55.671 31.4947C56.9354 32.9002 58.9457 33.8844 61.5466 33.8844C64.1475 33.8844 66.3607 32.9002 67.9091 31.4947C69.6152 29.9473 70.99 27.4878 71.292 24.5349C71.594 21.5821 70.8593 19.1225 69.3357 17.5053C68.1976 16.2395 66.2728 15.1156 63.4601 15.1156C60.4355 15.1156 58.344 16.3116 57.0976 17.5053Z" fill="#0026FF"/>
<path d="M82.0629 47.9437L94.4362 1.05411H111.953L115.484 20.2464C115.937 22.706 115.982 25.0259 115.989 25.6588H116.411C116.688 23.6205 117.114 22.215 117.876 20.2464L125.318 1.05411H142.692L145.584 47.9437H129.194L129.226 26.9247C129.251 25.3075 129.217 24.2534 129.417 22.2848H129.136C128.802 23.4808 128.194 25.3075 127.819 26.2219L118.642 47.9437H108.653L104.484 27.4157C104.164 25.7287 103.961 24.2511 104.091 22.2848H103.6C103.508 23.1993 103.321 25.0259 103.158 25.9404L98.5967 47.9437H82.0651H82.0629Z" fill="#0026FF"/>
<path d="M145.02 47.9437L149.796 1.05411H172.307C179.763 1.05411 183.747 4.07677 185.523 5.97551C189.005 9.77072 189.434 14.5525 189.053 18.2779C188.658 22.1452 187.365 26.5733 183.213 30.0172C179.14 33.3912 174.876 33.8124 171.291 33.8124H163.06L161.62 47.9437H145.018H145.02ZM164.265 22.0033H167.15C167.995 22.0033 169.76 21.9334 171.079 20.7374C171.768 20.1744 172.354 19.2622 172.499 17.8544C172.65 16.3791 172.109 15.4647 171.525 14.9714C170.815 14.3385 169.451 13.9173 168.185 13.9173H165.09L164.268 22.001L164.265 22.0033Z" fill="#0026FF"/>
<path d="M231.725 41.4771C227.301 45.5539 220.407 49 211.473 49C202.539 49 196.348 45.5561 192.753 41.4771C189.474 37.7517 187.177 31.9857 187.943 24.4651C188.703 17.0143 192.174 11.2483 196.21 7.52287C200.639 3.44385 207.531 0 216.465 0C225.399 0 231.59 3.44385 235.185 7.52287C238.464 11.2483 240.761 17.0143 240.001 24.4651C239.235 31.988 235.764 37.7517 231.725 41.4771ZM208.563 17.5053C206.697 19.2621 205.433 22.0055 205.173 24.5349C204.901 27.2062 205.622 29.8077 207.136 31.4947C208.401 32.9002 210.411 33.8844 213.012 33.8844C215.613 33.8844 217.826 32.9002 219.375 31.4947C221.081 29.9473 222.456 27.4878 222.758 24.5349C223.057 21.5821 222.325 19.1225 220.801 17.5053C219.663 16.2395 217.738 15.1156 214.926 15.1156C211.901 15.1156 209.809 16.3116 208.563 17.5053Z" fill="#0026FF"/>
<path d="M270.717 16.0278C268.819 14.6223 265.305 12.5118 261.508 12.5118C260.593 12.5118 259.173 12.6515 258.186 13.3565C257.503 13.8497 257.241 14.3407 257.169 15.0435C257.07 16.0278 257.117 16.9422 259.662 17.5031L264.956 18.6991C269.013 19.6135 271.303 21.3005 272.567 22.706C275.229 25.589 275.495 29.1748 275.209 31.9857C274.801 35.9926 273.365 39.718 269.863 43.0222C266.91 45.7634 261.517 48.9977 252.723 48.9977C245.546 48.9977 240.971 46.9594 237.126 45.3422L235.643 44.7093L242.125 31.4924L243.811 32.8979C245.434 34.2335 248.805 36.3418 252.957 36.3418C255.278 36.3418 256.32 35.7787 256.701 35.4971C257.539 34.8642 257.758 34.0916 257.83 33.3889C257.872 32.9677 257.875 32.265 257.431 31.7717C256.926 31.2086 256.031 30.9992 254.309 30.6478L250.237 29.8752C247.613 29.382 244.816 28.5396 242.484 25.8683C240.342 23.4087 239.644 20.5955 239.989 17.2215C240.433 12.8632 242.29 9.1378 245.7 6.04306C249.66 2.38749 255.179 -0.0022583 262.635 -0.0022583C266.363 -0.0022583 271.152 0.630654 276.5 4.07451L270.71 16.0255L270.717 16.0278Z" fill="#0026FF"/>
<path d="M272.811 47.9437L277.586 1.05411H294.609L289.834 47.9437H272.811Z" fill="#0026FF"/>
<path d="M299.331 47.9436L302.597 15.8859L292.987 16.3071L294.539 1.05185H330.415L328.862 16.3071L319.338 15.8859L316.072 47.9436H299.331Z" fill="#0026FF"/>
<path d="M325.567 47.9437L330.343 1.05411H361.998L360.688 13.9196H346.057L345.613 18.2779H358.908L357.655 30.5802H344.36L343.902 35.0804H358.955L357.646 47.9459H325.567V47.9437Z" fill="#0026FF"/>
</g>
<defs>
<clipPath id="clip0_7891_1240">
<rect width="362" height="49" fill="white"/>
</clipPath>
</defs>
</svg>
